<svg width="256" height="256" viewBox="0 0 256 256" fill="none" xmlns="http://www.w3.org/2000/svg">
<circle cx="128" cy="128" r="128" fill="#FFE100"/>
<circle cx="128" cy="128" r="123" stroke="#776900" stroke-width="10"/>
<g filter="url(#filter0_f_3926_65)">
<path d="M101.419 97.5C74.3117 97.5 46.7531 107.912 27 126.752C47.6719 147.08 69.2625 156.5 101.419 156.5C130.373 156.5 152.409 147.08 174 126.752C155.625 106.424 133.116 97.5 101.419 97.5Z" stroke="#480087" stroke-width="16"/>
<path d="M101.419 97.5C74.3117 97.5 46.7531 107.912 27 126.752C47.6719 147.08 69.2625 156.5 101.419 156.5C130.373 156.5 152.409 147.08 174 126.752C155.625 106.424 133.116 97.5 101.419 97.5Z" stroke="#480087" stroke-width="16"/>
<path d="M101 94.5C119.225 94.5 134 109.275 134 127.5C134 145.725 119.225 160.5 101 160.5C82.7746 160.5 68 145.725 68 127.5C68 109.275 82.7746 94.5 101 94.5ZM101 112.5C92.7157 112.5 86 119.216 86 127.5C86 135.784 92.7157 142.5 101 142.5C109.284 142.5 116 135.784 116 127.5C116 119.216 109.284 112.5 101 112.5Z" fill="#480087"/>
<path d="M107.5 101.5C126 98.5 139.5 85 148 69C152.5 104.5 170 110.5 210.5 96.5C172 140.5 176.5 144 191 177C157 153 151.5 148 105 177C117.5 145.5 142 123.5 107.5 101.5Z" stroke="#480087" stroke-width="16"/>
<path d="M107.5 101.5C126 98.5 139.5 85 148 69C152.5 104.5 170 110.5 210.5 96.5C172 140.5 176.5 144 191 177C157 153 151.5 148 105 177C117.5 145.5 142 123.5 107.5 101.5Z" stroke="#480087" stroke-width="16"/>
<circle cx="142.5" cy="91" r="12.5" fill="#480087"/>
<ellipse cx="180" cy="115" rx="21" ry="15.5" fill="#480087"/>
<ellipse cx="169" cy="146" rx="18" ry="17.5" fill="#480087"/>
</g>
<defs>
<filter id="filter0_f_3926_65" x="15.001" y="42.4779" width="221.857" height="158.159" filterUnits="userSpaceOnUse" color-interpolation-filters="sRGB">
<feFlood flood-opacity="0" result="BackgroundImageFix"/>
<feBlend mode="normal" in="SourceGraphic" in2="BackgroundImageFix" result="shape"/>
<feGaussianBlur stdDeviation="0.25" result="effect1_foregroundBlur_3926_65"/>
</filter>
</defs>
</svg>
